<mxfile host="Electron" agent="Mozilla/5.0 (Windows NT 10.0; Win64; x64) AppleWebKit/537.36 (KHTML, like Gecko) draw.io/24.7.17 Chrome/128.0.6613.36 Electron/32.0.1 Safari/537.36" version="24.7.17">
  <diagram name="Page-1" id="9NB7-PRQ4_1gvZtzkaOk">
    <mxGraphModel dx="1322" dy="684" grid="1" gridSize="10" guides="1" tooltips="1" connect="1" arrows="1" fold="1" page="1" pageScale="1" pageWidth="850" pageHeight="1100" math="0" shadow="0">
      <root>
        <mxCell id="0" />
        <mxCell id="1" parent="0" />
        <mxCell id="AeD64gYkIC9FekTXgeDK-1" value="Question" style="rounded=1;arcSize=10;whiteSpace=wrap;html=1;align=center;" parent="1" vertex="1">
          <mxGeometry x="360" y="240" width="100" height="40" as="geometry" />
        </mxCell>
        <mxCell id="AeD64gYkIC9FekTXgeDK-2" value="Title" style="ellipse;whiteSpace=wrap;html=1;align=center;" parent="1" vertex="1">
          <mxGeometry x="250" y="160" width="100" height="40" as="geometry" />
        </mxCell>
        <mxCell id="AeD64gYkIC9FekTXgeDK-3" value="Content" style="ellipse;whiteSpace=wrap;html=1;align=center;" parent="1" vertex="1">
          <mxGeometry x="360" y="160" width="100" height="40" as="geometry" />
        </mxCell>
        <mxCell id="AeD64gYkIC9FekTXgeDK-5" value="Answer" style="ellipse;shape=doubleEllipse;margin=3;whiteSpace=wrap;html=1;align=center;" parent="1" vertex="1">
          <mxGeometry x="470" y="160" width="100" height="40" as="geometry" />
        </mxCell>
        <mxCell id="AeD64gYkIC9FekTXgeDK-7" value="Questioner" style="ellipse;whiteSpace=wrap;html=1;align=center;" parent="1" vertex="1">
          <mxGeometry x="580" y="160" width="100" height="40" as="geometry" />
        </mxCell>
        <mxCell id="AeD64gYkIC9FekTXgeDK-8" value="" style="endArrow=none;html=1;rounded=0;" parent="1" source="AeD64gYkIC9FekTXgeDK-3" target="AeD64gYkIC9FekTXgeDK-1" edge="1">
          <mxGeometry relative="1" as="geometry">
            <mxPoint x="360" y="380" as="sourcePoint" />
            <mxPoint x="520" y="380" as="targetPoint" />
          </mxGeometry>
        </mxCell>
        <mxCell id="AeD64gYkIC9FekTXgeDK-9" value="" style="endArrow=none;html=1;rounded=0;" parent="1" source="AeD64gYkIC9FekTXgeDK-5" target="AeD64gYkIC9FekTXgeDK-1" edge="1">
          <mxGeometry relative="1" as="geometry">
            <mxPoint x="420" y="210" as="sourcePoint" />
            <mxPoint x="420" y="250" as="targetPoint" />
          </mxGeometry>
        </mxCell>
        <mxCell id="AeD64gYkIC9FekTXgeDK-10" value="" style="endArrow=none;html=1;rounded=0;" parent="1" source="AeD64gYkIC9FekTXgeDK-7" target="AeD64gYkIC9FekTXgeDK-1" edge="1">
          <mxGeometry relative="1" as="geometry">
            <mxPoint x="506" y="208" as="sourcePoint" />
            <mxPoint x="448" y="250" as="targetPoint" />
          </mxGeometry>
        </mxCell>
        <mxCell id="AeD64gYkIC9FekTXgeDK-11" value="" style="endArrow=none;html=1;rounded=0;" parent="1" source="AeD64gYkIC9FekTXgeDK-2" target="AeD64gYkIC9FekTXgeDK-1" edge="1">
          <mxGeometry relative="1" as="geometry">
            <mxPoint x="603" y="203" as="sourcePoint" />
            <mxPoint x="470" y="252" as="targetPoint" />
          </mxGeometry>
        </mxCell>
        <mxCell id="hu59p34DRJ1O9EBTxFUq-1" value="Course" style="ellipse;whiteSpace=wrap;html=1;align=center;" vertex="1" parent="1">
          <mxGeometry x="140" y="160" width="100" height="40" as="geometry" />
        </mxCell>
        <mxCell id="hu59p34DRJ1O9EBTxFUq-2" value="" style="endArrow=none;html=1;rounded=0;" edge="1" parent="1" source="AeD64gYkIC9FekTXgeDK-1" target="hu59p34DRJ1O9EBTxFUq-1">
          <mxGeometry width="50" height="50" relative="1" as="geometry">
            <mxPoint x="160" y="350" as="sourcePoint" />
            <mxPoint x="210" y="300" as="targetPoint" />
          </mxGeometry>
        </mxCell>
      </root>
    </mxGraphModel>
  </diagram>
</mxfile>
